<svg width="25" height="25" fill="none" viewBox="0 0 387.764 386.212" xmlns="http://www.w3.org/2000/svg">
    <path
        d="M66.646 31.45h63.06c19.416 0 35.08 19.365 35.08 35.08v63.06c0 19.415-15.715 35.13-35.08 35.13h-63.06c-19.415 0-35.13-19.416-35.13-35.13V66.53c0-19.416 15.766-35.08 35.13-35.08zm191.412 0h63.06c19.416 0 35.13 19.365 35.13 35.08v63.06c0 19.415-15.765 35.13-35.13 35.13h-63.06c-19.415 0-35.08-19.416-35.08-35.13V66.53c0-19.416 15.716-35.08 35.08-35.08 0 0 0 0 0 0zM66.646 221.494h63.06c19.416 0 35.08 19.415 35.08 35.13v63.06c0 19.415-15.715 35.079-35.08 35.079h-63.06c-19.415 0-35.13-19.364-35.13-35.08v-63.06c0-19.414 15.766-35.13 35.13-35.13z"
        stroke="#fff" stroke-width="30.111" />
    <path
        d="M315.949 288.153c0 35.147-52.652 35.147-52.652 0 0-35.145 52.652-35.145 52.652 0m-50.084-48.46c0 35.146-52.652 35.146-52.652 0 0-35.147 52.652-35.147 52.652 0m0 96.922c0 35.147-52.652 35.147-52.652 0 0-35.146 52.652-35.146 52.652 0m100.168 0c0 35.147-52.72 35.147-52.72 0 0-35.146 52.72-35.146 52.72 0m0-96.922c0 35.146-52.72 35.146-52.72 0 0-35.147 52.72-35.147 52.72 0"
        fill="#fff" />
</svg>